name Walk5.mot
datacolumns 19
datarows 20
range 1.45000000 1.54500000
endheader

                time	   L_ground_force_vx	   L_ground_force_vy	   L_ground_force_vz	   L_ground_force_px	   L_ground_force_py	   L_ground_force_pz	   R_ground_force_vx	   R_ground_force_vy	   R_ground_force_vz	   R_ground_force_px	   R_ground_force_py	   R_ground_force_pz	   L_ground_torque_x	   L_ground_torque_y	   L_ground_torque_z	   R_ground_torque_x	   R_ground_torque_y	   R_ground_torque_z	
          1.45000000	          0.08000258	          0.17962803	         -0.00614801	         -0.00024256	          0.00000000	         -0.00002557	        -25.92792565	        737.52563370	        -43.10430939	          0.16675422	          0.00000000	          0.08044154	          0.00000000	         -0.00021165	          0.00000000	          0.00000000	          1.71940356	          0.00000000	
          1.45500000	          0.06547833	          0.15273642	         -0.00805583	         -0.00036376	          0.00000000	         -0.00004069	        -24.17636539	        729.77081257	        -42.09405266	          0.16891640	          0.00000000	          0.08054934	          0.00000000	         -0.00025711	          0.00000000	          0.00000000	          1.63226779	          0.00000000	
          1.46000000	          0.05098567	          0.12341174	         -0.00864216	         -0.00041272	          0.00000000	         -0.00004717	        -22.49532757	        722.54635529	        -41.01248416	          0.17108589	          0.00000000	          0.08065618	          0.00000000	         -0.00026593	          0.00000000	          0.00000000	          1.55436504	          0.00000000	
          1.46500000	          0.03765945	          0.09484602	         -0.00833467	         -0.00041147	          0.00000000	         -0.00004759	        -20.88481228	        715.94454968	        -39.90697877	          0.17326247	          0.00000000	          0.08076370	          0.00000000	         -0.00025055	          0.00000000	          0.00000000	          1.48855315	          0.00000000	
          1.47000000	          0.02613520	          0.06902620	         -0.00747832	         -0.00037813	          0.00000000	         -0.00004410	        -19.34244594	        710.02024476	        -38.83436945	          0.17544836	          0.00000000	          0.08087280	          0.00000000	         -0.00022088	          0.00000000	          0.00000000	          1.43746870	          0.00000000	
          1.47500000	          0.01667795	          0.04700931	         -0.00633770	         -0.00032685	          0.00000000	         -0.00003837	        -17.86268965	        704.79612709	        -37.85471829	          0.17764678	          0.00000000	          0.08098406	          0.00000000	         -0.00018438	          0.00000000	          0.00000000	          1.40304924	          0.00000000	
          1.48000000	          0.00929417	          0.02917244	         -0.00510502	         -0.00026811	          0.00000000	         -0.00003167	        -16.43793956	        700.27205608	        -37.02227017	          0.17986176	          0.00000000	          0.08109803	          0.00000000	         -0.00014639	          0.00000000	          0.00000000	          1.38582335	          0.00000000	
          1.48500000	          0.00382404	          0.01542681	         -0.00391077	         -0.00020923	          0.00000000	         -0.00002486	        -15.05913579	        696.43551783	        -36.37833511	          0.18209948	          0.00000000	          0.08121474	          0.00000000	         -0.00011045	          0.00000000	          0.00000000	          1.38432529	          0.00000000	
          1.49000000	          0.00001371	          0.00539194	         -0.00283563	         -0.00015493	          0.00000000	         -0.00001853	        -13.71612063	        693.26803786	        -35.94726573	          0.18436573	          0.00000000	          0.08133378	          0.00000000	         -0.00007867	          0.00000000	          0.00000000	          1.39539690	          0.00000000	
          1.49500000	         -0.00243086	         -0.00146968	         -0.00192190	         -0.00010786	          0.00000000	         -0.00001300	        -12.39842433	        690.74701387	        -35.73529911	          0.18666161	          0.00000000	          0.08145335	          0.00000000	         -0.00005207	          0.00000000	          0.00000000	          1.41455254	          0.00000000	
          1.50000000	         -0.00380626	         -0.00575366	         -0.00118395	         -0.00006914	          0.00000000	         -0.00000843	        -11.09446228	        688.84801418	        -35.73257346	          0.18898402	          0.00000000	          0.08156988	          0.00000000	         -0.00003089	          0.00000000	          0.00000000	          1.43689577	          0.00000000	
          1.50500000	         -0.00438726	         -0.00804585	         -0.00061707	         -0.00003884	          0.00000000	         -0.00000483	         -9.79242503	        687.55029022	        -35.91605663	          0.19132714	          0.00000000	          0.08167978	          0.00000000	         -0.00001486	          0.00000000	          0.00000000	          1.45771357	          0.00000000	
          1.51000000	         -0.00441285	         -0.00887946	         -0.00020474	         -0.00001634	          0.00000000	         -0.00000214	         -8.48187506	        686.83867449	        -36.25341696	          0.19368464	          0.00000000	          0.08177982	          0.00000000	         -0.00000341	          0.00000000	          0.00000000	          1.47256751	          0.00000000	
          1.51500000	         -0.00408027	         -0.00871178	          0.00007587	         -0.00000062	          0.00000000	         -0.00000025	         -7.15556464	        686.70128634	        -36.70744925	          0.19605104	          0.00000000	          0.08186782	          0.00000000	          0.00000420	          0.00000000	          0.00000000	          1.47786584	          0.00000000	
          1.52000000	         -0.00354429	         -0.00791525	          0.00024982	          0.00000951	          0.00000000	          0.00000099	         -5.81058190	        687.12625301	        -37.23934544	          0.19841956	          0.00000000	          0.08194200	          0.00000000	          0.00000875	          0.00000000	          0.00000000	          1.47133565	          0.00000000	
          1.52500000	         -0.00292026	         -0.00677845	          0.00034161	          0.00001526	          0.00000000	          0.00000170	         -4.44881371	        688.10315643	        -37.81268934	          0.20078505	          0.00000000	          0.08199963	          0.00000000	          0.00001098	          0.00000000	          0.00000000	          1.45232054	          0.00000000	
          1.53000000	         -0.00228913	         -0.00551335	          0.00037346	          0.00001773	          0.00000000	          0.00000202	         -3.07784536	        689.62358183	        -38.39652644	          0.20314616	          0.00000000	          0.08203831	          0.00000000	          0.00001154	          0.00000000	          0.00000000	          1.42164106	          0.00000000	
          1.53500000	         -0.00170335	         -0.00426603	          0.00036435	          0.00001792	          0.00000000	          0.00000207	         -1.70941542	        691.67200032	        -38.96743909	          0.20550186	          0.00000000	          0.08205577	          0.00000000	          0.00001098	          0.00000000	          0.00000000	          1.38104938	          0.00000000	
          1.54000000	         -0.00119299	         -0.00312875	          0.00032969	          0.00001662	          0.00000000	          0.00000194	         -0.35675688	        694.21990540	        -39.51057748	          0.20785117	          0.00000000	          0.08205024	          0.00000000	          0.00000976	          0.00000000	          0.00000000	          1.33287271	          0.00000000	
          1.54500000	         -0.00077136	         -0.00215199	          0.00028139	          0.00001448	          0.00000000	          0.00000170	          0.96675102	        697.22623875	        -40.02019638	          0.21019438	          0.00000000	          0.08202111	          0.00000000	          0.00000820	          0.00000000	          0.00000000	          1.27966209	          0.00000000	
